<svg width="36" height="37" viewBox="0 0 36 37" fill="none" xmlns="http://www.w3.org/2000/svg">
<path d="M8.09912 5.3042H20.0991V1.9292C20.0991 1.30792 20.5491 0.804199 21.0991 0.804199C21.6491 0.804199 22.0991 1.30792 22.0991 1.9292V5.3042H24.0991C26.3054 5.3042 28.0991 7.31865 28.0991 9.8042V14.3042H2.09912V32.3042C2.09912 33.5487 2.99475 34.5542 4.09912 34.5542H16.2554L16.1866 34.8495C16.0429 35.5104 16.0804 36.1854 16.2741 36.8042H4.09912C1.88975 36.8042 0.0991211 34.7862 0.0991211 32.3042V9.8042C0.0991211 7.31865 1.88975 5.3042 4.09912 5.3042H6.09912V1.9292C6.09912 1.30792 6.54912 0.804199 7.09912 0.804199C7.64912 0.804199 8.09912 1.30792 8.09912 1.9292V5.3042ZM2.09912 9.8042V12.0542H26.0991V9.8042C26.0991 8.55967 25.2054 7.5542 24.0991 7.5542H4.09912C2.99475 7.5542 2.09912 8.55967 2.09912 9.8042ZM15.0991 25.5542C15.6491 25.5542 16.0991 26.0604 16.0991 26.6792C16.0991 27.2979 15.6491 27.8042 15.0991 27.8042H7.09912C6.54912 27.8042 6.09912 27.2979 6.09912 26.6792C6.09912 26.0604 6.54912 25.5542 7.09912 25.5542H15.0991ZM6.09912 19.9292C6.09912 19.3104 6.54912 18.8042 7.09912 18.8042H21.0991C21.6491 18.8042 22.0991 19.3104 22.0991 19.9292C22.0991 20.5479 21.6491 21.0542 21.0991 21.0542H7.09912C6.54912 21.0542 6.09912 20.5479 6.09912 19.9292ZM29.6929 17.7776C30.8679 16.4558 32.7679 16.4558 33.9366 17.7776L35.0241 18.994C36.1929 20.3159 36.1929 22.4534 35.0241 23.7683L25.4179 34.5753C25.0304 35.0112 24.5491 35.3136 24.0241 35.405L19.3429 36.7831C18.9991 36.8745 18.6429 36.762 18.3929 36.4878C18.1429 36.2065 18.0429 35.7987 18.1304 35.419L19.2991 30.1526C19.4304 29.555 19.7054 29.0136 20.0866 28.5847L29.6929 17.7776ZM32.5241 19.3667C32.1304 18.9308 31.4991 18.9308 31.1116 19.3667L29.5554 21.1104L32.0554 23.9229L33.6116 22.1159C33.9991 21.7362 33.9991 21.0261 33.6116 20.5901L32.5241 19.3667ZM21.2366 30.694L20.4179 34.1464L23.5366 33.2815C23.7116 33.2323 23.8741 33.1339 23.9991 32.9862L30.6429 25.512L28.1429 22.7065L21.5054 30.1737C21.3741 30.3214 21.2804 30.4972 21.2366 30.694Z" fill="black"/>
</svg>
