<svg width="30" height="30" viewBox="0 0 30 30" fill="none" xmlns="http://www.w3.org/2000/svg">
<path d="M30 15.0559C30 6.73985 23.2852 0 15 0C6.71484 0 0 6.73985 0 15.0559C0 22.1133 4.8457 28.0416 11.3789 29.6707V19.655H8.28516V15.0559H11.3789V13.0739C11.3789 7.95138 13.6875 5.57538 18.7031 5.57538C19.6523 5.57538 21.293 5.76358 21.9668 5.95177V10.1157C21.6152 10.0804 21 10.0569 20.2324 10.0569C17.7715 10.0569 16.8223 10.992 16.8223 13.4209V15.0559H21.7207L20.877 19.655H16.8164V30C24.2461 29.1002 30 22.7544 30 15.0559Z" fill="white"/>
</svg>
