<svg width="34" height="34" viewBox="0 0 34 34" fill="none" xmlns="http://www.w3.org/2000/svg">
<g clip-path="url(#clip0_252_429)">
<path d="M32.9493 21.8108C32.3885 21.2552 31.6507 20.949 30.8763 20.949C30.1384 20.949 29.4076 21.2228 28.8327 21.7302L25.2055 24.9019C25.0916 25.0015 24.9502 25.0557 24.8044 25.0557H22.3476C22.6206 24.4357 22.7313 23.7189 22.628 22.9783C22.3951 21.1727 20.8781 19.903 19.2194 19.903H10.6958C9.47101 19.903 8.32882 20.3378 7.30174 21.143L5.02917 22.9948H0.944444C0.424941 22.9948 0 23.4585 0 24.0254C0 24.5922 0.424882 25.0012 0.89132 25.0012L5.61413 25.0019L8.38017 22.7274C9.03656 22.196 9.83344 21.9062 10.6451 21.9062H19.3044C20.0866 21.9062 20.7211 22.5985 20.7211 23.4525C20.7211 24.3065 20.0866 24.9981 19.3044 24.9981H14.1135C13.597 24.9981 13.1691 25.4651 13.1691 26.0287C13.1691 26.5924 13.597 27.0593 14.1135 27.0593H24.7503C25.3185 27.0593 25.8719 26.8499 26.3217 26.4633L29.959 23.291C30.2098 23.0736 30.5197 22.9527 30.8219 22.9527C31.1171 22.9527 31.4048 23.0655 31.6336 23.291C32.2309 23.8787 32.187 24.8688 31.5819 25.3928L25.6378 30.5864C25.1902 30.9773 24.6338 31.1903 24.0606 31.1903H0.944444C0.424941 31.1903 0 31.6536 0 32.2202C0 32.7868 0.424882 33.3092 0.89132 33.3092H24.0597C25.0632 33.3092 26.0301 32.9308 26.8116 32.2541L32.7675 27.0527C33.4906 26.4247 33.9185 25.4827 33.8949 24.4759C34.0295 23.4672 33.5927 22.494 32.9493 21.8108ZM11.3333 12.6842H13.2222V14.7467C13.2222 15.8856 14.0681 16.8092 15.1111 16.8092H18.8889C19.9319 16.8092 20.7778 15.8856 20.7778 14.7467V12.6842H22.6667C23.7097 12.6842 24.5556 11.7606 24.5556 10.6217V6.4967C24.5556 5.35782 23.7097 4.4342 22.6667 4.4342H20.7778V2.3717C20.7778 1.23282 19.9319 0.309204 18.8889 0.309204H15.1111C14.0663 0.309204 13.2222 1.23282 13.2222 2.3717V4.4342H11.3333C10.2885 4.4342 9.44444 5.35782 9.44444 6.4967V10.6217C9.44444 11.7625 10.2885 12.6842 11.3333 12.6842ZM11.3333 6.4967H15.1111V2.3717H18.8889V6.4967H22.6667V10.6217H18.8889V14.7467H15.1111V10.6217H11.3333V6.4967Z" fill="black"/>
</g>
<defs>
<clipPath id="clip0_252_429">
<rect width="34" height="33" fill="white" transform="translate(0 0.309204)"/>
</clipPath>
</defs>
</svg>
