<svg xmlns="http://www.w3.org/2000/svg" width="35" height="29" viewBox="0 0 35 29" fill="none">
<path d="M13.0648 18.6971C13.2398 19.1615 13.0211 19.6883 12.5727 19.8752C12.1242 20.0564 11.6156 19.8299 11.4352 19.3654L10.9594 18.074H6.54063L6.06484 19.3654C5.88438 19.8299 5.37359 20.0564 4.92516 19.8752C4.47617 19.6883 4.25797 19.1615 4.43734 18.6971L7.93516 9.63457C8.07188 9.23809 8.39453 9.0625 8.75 9.0625C9.10547 9.0625 9.42812 9.23809 9.56484 9.63457L13.0648 18.6971ZM7.24062 16.3125H10.2594L8.75 12.41L7.24062 16.3125ZM27.125 10.875H30.625C31.1063 10.875 31.5 11.2828 31.5 11.7812C31.5 12.2797 31.1063 12.6875 30.625 12.6875H30.3625L30.1328 13.3445C29.6133 14.8229 28.7984 16.1482 27.7539 17.2527C27.9289 17.3773 28.0602 17.4963 28.2898 17.6096L29.3234 18.2553C29.7391 18.5102 29.8758 19.0709 29.6242 19.4957C29.3781 19.9262 28.8367 20.0678 28.4266 19.8072L27.393 19.1672C27.043 18.952 26.7094 18.7141 26.3813 18.4139C25.9328 18.799 25.4625 19.0936 24.9594 19.3541L24.0188 19.8412C23.5867 20.0678 23.0563 19.8865 22.843 19.4391C22.6242 18.9916 22.7992 18.4422 23.2312 18.2213L24.1773 17.7342C24.4727 17.5813 24.7516 17.4113 25.025 17.2301L23.882 16.0463C23.5375 15.6951 23.5375 15.1174 23.882 14.7662C24.2211 14.4094 24.7789 14.4094 25.118 14.7662L26.3539 16.0463L26.3977 16.0916C27.3219 15.1514 28.0383 14.0016 28.4867 12.7215L28.5031 12.6365H21.875C21.3937 12.6365 21 12.2797 21 11.7303C21 11.2828 21.3937 10.824 21.875 10.824H25.375V9.91777C25.375 9.47031 25.7687 9.01152 26.25 9.01152C26.7313 9.01152 27.125 9.47031 27.125 9.91777V10.875ZM35 21.75C35 23.7494 33.4305 25.375 31.5 25.375H3.5C1.5668 25.375 0 23.7494 0 21.75V7.25C0 5.24775 1.5668 3.625 3.5 3.625H31.5C33.4305 3.625 35 5.24775 35 7.25V21.75ZM16.625 5.4375H3.5C2.53367 5.4375 1.75 6.24746 1.75 7.25V21.75C1.75 22.7525 2.53367 23.5625 3.5 23.5625H16.625V5.4375ZM18.375 5.4375V23.5625H31.5C32.468 23.5625 33.25 22.7525 33.25 21.75V7.25C33.25 6.24746 32.468 5.4375 31.5 5.4375H18.375Z" fill="white"/>
</svg>