<svg xmlns="http://www.w3.org/2000/svg" width="26" height="26" viewBox="0 0 26 26" fill="none">
<path d="M25.7613 12.4262L18.4488 5.11367C18.1314 4.79629 17.617 4.79629 17.3002 5.11367C16.9833 5.43105 16.9828 5.94547 17.3002 6.26234L23.2273 12.1875H8.9375C8.49063 12.1875 8.125 12.5531 8.125 13C8.125 13.4469 8.48839 13.8125 8.9375 13.8125H23.2273L17.3012 19.7387C16.9838 20.0561 16.9838 20.5705 17.3012 20.8873C17.6186 21.2042 18.133 21.2047 18.4498 20.8873L25.7623 13.5748C25.9188 13.4164 26 13.2082 26 13C26 12.7918 25.9187 12.5836 25.7613 12.4262ZM8.9375 22.75H4.0625C2.71832 22.75 1.625 21.6582 1.625 20.3125V5.6875C1.625 4.34332 2.71832 3.25 4.0625 3.25H8.9375C9.38437 3.25 9.75 2.88641 9.75 2.4375C9.75 1.98859 9.38437 1.625 8.9375 1.625H4.0625C1.82203 1.625 0 3.44703 0 5.6875V20.3125C0 22.552 1.82203 24.375 4.0625 24.375H8.9375C9.38437 24.375 9.75 24.0094 9.75 23.5625C9.75 23.1156 9.38437 22.75 8.9375 22.75Z" fill="white"/>
</svg>