<svg xmlns="http://www.w3.org/2000/svg" width="24" height="26" viewBox="0 0 24 26" fill="none">
<g clip-path="url(#clip0_190_2172)">
<path d="M12 13C15.7875 13 18.8571 10.0897 18.8571 6.5C18.8571 2.91027 15.7875 0 12 0C8.2125 0 5.14286 2.91027 5.14286 6.5C5.14286 10.0897 8.2125 13 12 13ZM12 1.625C14.8361 1.625 17.1429 3.81164 17.1429 6.5C17.1429 9.18785 14.8361 11.375 12 11.375C9.16393 11.375 6.85714 9.18633 6.85714 6.5C6.85714 3.81164 9.16607 1.625 12 1.625ZM14.7161 15.4375H9.28393C4.15768 15.4375 0 19.3781 0 24.2379C0 25.2098 0.831429 25.9985 1.85679 25.9985H22.1443C23.1696 26 24 25.2129 24 24.2379C24 19.3781 19.8429 15.4375 14.7161 15.4375ZM22.1411 24.375H1.85679C1.77857 24.375 1.71429 24.3141 1.71429 24.2379C1.71429 20.282 5.11071 17.0625 9.28393 17.0625H14.7107C18.8893 17.0625 22.2857 20.282 22.2857 24.2379C22.2857 24.3141 22.2214 24.375 22.1411 24.375Z" fill="#F5F5F5"/>
</g>
<defs>
<clipPath id="clip0_190_2172">
<rect width="24" height="26" fill="white"/>
</clipPath>
</defs>
</svg>